# xmcd
#
# Track frame offsets:
#	150
#	20998
#	38963
#	66663
#	86025
#	101026
#	126489
#	160189
#	177709
#
# Disc length: 2596 seconds
#
# Revision: 1
# Processed by: cddbd v1.5.2PL0 Copyright (c) Steve Scherf et al.
# Submitted via: audiograbber 1.83.01
#
DISCID=8b0a2209
DTITLE=Shaman Spirits - We Are Infants
DYEAR=2014
DGENRE=Contemporary Blues
TTITLE0=Beyond Mississippi
TTITLE1=Political Life
TTITLE2=Song for Siri
TTITLE3=Fall of the Infidel
TTITLE4=Yeah You!
TTITLE5=Always
TTITLE6=Run Conejo Run
TTITLE7=Before the Beginning
TTITLE8=Casino Light
EXTD=
EXTT0=
EXTT1=
EXTT2=
EXTT3=
EXTT4=
EXTT5=
EXTT6=
EXTT7=
EXTT8=
PLAYORDER=
